<?xml version="1.0" encoding="UTF-8"?>
<svg id="Layer_2" data-name="Layer 2" xmlns="http://www.w3.org/2000/svg" viewBox="0 0 113.36 113.36">
  <defs>
    <style>
      .cls-1 {
        fill: #ec008c;
      }
    </style>
  </defs>
  <g id="Layer_1-2" data-name="Layer 1">
    <path class="cls-1" d="m31.68,14.03c-1.46-.02-2.71.89-3.31,2.48-3.24,8.48-6.47,16.97-9.69,25.46-.17.45-.36.89-.31,1.33-.02,1.42.79,2.46,2.12,2.79,1.31.32,2.6-.28,3.17-1.58.58-1.35,1.08-2.74,1.58-4.12.18-.5.41-.76,1.01-.75,3.58.03,7.15.03,10.73,0,.6,0,.83.25,1.01.76.43,1.21.89,2.41,1.37,3.61.71,1.81,2.14,2.58,3.71,2,1.54-.57,2.16-2.15,1.49-3.94-3.2-8.54-6.42-17.07-9.64-25.6-.58-1.54-1.79-2.42-3.23-2.43Zm3.34,20.07c-2.4,0-4.79,0-7.37,0,1.31-3.46,2.59-6.81,3.99-10.5,1.39,3.67,2.65,7.02,3.93,10.42-.27.04-.41.07-.55.07Zm24.35,72.62c-16.25,0-32.5,0-48.75,0-2.7,0-3.99-1.3-3.99-4.01,0-13.76,0-27.53-.02-41.29,0-.94.17-1.23,1.19-1.23,12.55.04,25.09.03,37.64.03,5.64,0,11.28,0,16.92,0,3.16-2.9,6.76-5.14,10.66-6.63-9.23-.01-18.45,0-27.68,0-12.5,0-25.01-.01-37.51.02-.94,0-1.23-.18-1.23-1.19.04-13.94.03-27.88.03-41.83,0-2.64,1.31-3.95,3.93-3.95,23.2,0,46.4,0,69.6,0,2.68,0,3.97,1.31,3.97,4.03,0,13.58,0,27.17.02,40.75.03,0,.06,0,.09,0,.21,0,.42,0,.64,0,1.99,0,3.96.17,5.89.51,0-13.99,0-27.98,0-41.96,0-4.73-3.21-8.69-7.8-9.73-.21-.05-.41-.15-.61-.22H8.41c-.94.42-1.98.54-2.89,1.04C2.03,2.94.03,5.84.02,9.85,0,41.06,0,72.27.01,103.48c0,5.44,4.42,9.86,9.85,9.86,19.04.01,38.07.01,57.11,0-1.93-1.24-3.76-2.68-5.43-4.32-.76-.74-1.48-1.52-2.16-2.32Zm10.81-81.16c-.01-1.29-.84-2.24-2.05-2.55-1.21-.31-2.5.12-3.01,1.24-.42.94-.83.76-1.57.46-4.91-2.01-10.52-.01-13.15,4.63-2.62,4.63-1.43,10.46,2.86,13.64,3.25,2.41,6.79,2.81,10.54,1.31.34-.13.68-.61,1.07.09.89,1.59,1.9,2.06,3.3,1.68,1.36-.37,2.02-1.38,2.03-3.14,0-2.8,0-5.6,0-8.4,0,0,0,0-.01,0,0-2.99.02-5.97-.01-8.96Zm-10.61,14.02c-2.76-.05-4.94-2.28-4.94-5.04,0-2.76,2.19-4.99,4.94-5.04,2.75-.04,5.08,2.27,5.08,5.04,0,2.76-2.35,5.09-5.09,5.04Zm-27.14,27.29c-2.17,0-3.63,1.32-3.64,3.28-.02,2.01,1.45,3.35,3.68,3.35,4.31,0,8.62,0,12.94,0,2.68,0,5.35,0,8.03,0,.85-2.32,1.96-4.54,3.31-6.63-8.11,0-16.21,0-24.32,0Zm80.92,17.56c-.28-15.57-13.31-28.04-29-27.75-15.48.29-27.98,13.35-27.67,28.89.32,15.64,13.28,28.07,28.97,27.78,15.54-.29,27.98-13.29,27.7-28.92Zm-14.27,2.85c-.4.21-.82.29-1.28.29-1.59,0-3.18,0-4.77,0-1.63,0-3.26.02-4.89-.01-.49,0-.6.15-.6.61.02,3.26.02,6.52,0,9.77,0,1.2-.79,2.14-1.96,2.43-1.11.27-2.27-.23-2.82-1.23-.24-.43-.32-.9-.32-1.39,0-3.18-.01-6.36.02-9.53,0-.55-.16-.66-.68-.66-3.24.02-6.48.02-9.71,0-1.24,0-2.19-.83-2.46-2.07-.24-1.08.35-2.25,1.37-2.76.43-.21.88-.26,1.34-.26,3.16,0,6.31-.01,9.47.02.54,0,.66-.15.66-.67-.02-3.24-.02-6.48,0-9.71,0-1.26.86-2.22,2.13-2.48,1.07-.22,2.23.4,2.73,1.44.2.41.24.84.24,1.29,0,3.16.01,6.31-.02,9.47,0,.54.15.67.67.66,3.24-.02,6.48-.02,9.71,0,1.22,0,2.16.81,2.44,2.02.25,1.1-.29,2.26-1.3,2.79Zm-85.79,9.93c.21,1.65,1.61,2.85,3.4,2.85,7.34,0,14.67,0,22.01,0,5.42,0,10.83,0,16.25,0-1.06-2.11-1.9-4.33-2.49-6.63-11.86,0-23.73,0-35.59,0-.4,0-.82.02-1.2.13-1.63.47-2.59,1.98-2.38,3.64Zm32.21-17.06c-9.55,0-19.1,0-28.65,0-2.13,0-3.59,1.38-3.57,3.36.02,1.92,1.47,3.27,3.54,3.27,11.54,0,23.08,0,34.62,0-.02-.37-.03-.73-.04-1.1-.04-1.87.08-3.71.34-5.53-2.08,0-4.16,0-6.24,0Z"/>
  </g>
</svg>