<?xml version="1.0" encoding="UTF-8"?>
<svg id="Layer_2" data-name="Layer 2" xmlns="http://www.w3.org/2000/svg" viewBox="0 0 113.36 113.36">
  <defs>
    <style>
      .cls-1 {
        fill: #ec008c;
      }
    </style>
  </defs>
  <g id="Layer_1-2" data-name="Layer 1">
    <path class="cls-1" d="m60.21,108.05c-10.44,0-20.89,0-31.33,0-2.16,0-3.19-1.04-3.19-3.21,0-11.01,0-22.02-.02-33.03,0-.75.14-.99.95-.98,9.19.03,18.38.02,27.57.02.87-1.85,1.9-3.63,3.11-5.31-.22,0-.43,0-.65,0-10,0-20.01,0-30.01.02-.75,0-.98-.14-.98-.95.03-11.15.02-22.31.02-33.46,0-2.11,1.05-3.16,3.14-3.16,18.56,0,37.12,0,55.68,0,2.15,0,3.17,1.04,3.17,3.22,0,6.78,0,13.57,0,20.35,1.8.17,3.57.48,5.3.92,0-7.28,0-14.56,0-21.84,0-3.78-2.56-6.95-6.24-7.79-.17-.04-.32-.12-.49-.18h-3.46c0-1.12,0-2.25,0-3.37,0-3.78-2.56-6.95-6.24-7.79-.17-.04-.32-.12-.49-.18h-3.46c0-1.12,0-2.25,0-3.37,0-3.78-2.56-6.95-6.24-7.79-.17-.04-.32-.12-.49-.18H6.73c-.75.33-1.58.43-2.31.83C1.62,2.36.02,4.67.02,7.88,0,32.85,0,57.82,0,82.79c0,4.35,3.54,7.89,7.88,7.89.77,0,1.54,0,2.3,0,0,1.15,0,2.3,0,3.44,0,4.35,3.54,7.89,7.88,7.89.77,0,1.54,0,2.3,0,0,1.15,0,2.3,0,3.44,0,4.35,3.54,7.89,7.88,7.89,12.79,0,25.57,0,38.36,0-1.94-1.24-3.76-2.68-5.44-4.32-.33-.32-.65-.65-.97-.99Zm-51.7-22.67c-2.16,0-3.19-1.04-3.19-3.21,0-11.01,0-22.02-.02-33.03,0-.75.14-.99.95-.98,1.32,0,2.63,0,3.95,0,0,12.4,0,24.81,0,37.21-.56,0-1.13,0-1.69,0Zm1.7-66.16c0,7.89,0,15.78-.01,23.67-1.31,0-2.61,0-3.92,0-.75,0-.98-.14-.98-.95.03-11.15.02-22.31.02-33.46,0-2.11,1.05-3.16,3.14-3.16,18.56,0,37.12,0,55.68,0,2.15,0,3.17,1.04,3.17,3.22,0,.93,0,1.87,0,2.8H16.92c-.75.33-1.58.43-2.31.83-2.8,1.53-4.4,3.84-4.4,7.05Zm8.48,77.5c-2.16,0-3.19-1.04-3.19-3.21,0-11.01,0-22.02-.02-33.03,0-.75.14-.99.95-.98,1.32,0,2.63,0,3.95,0,0,12.4,0,24.81,0,37.21-.56,0-1.13,0-1.69,0Zm1.7-66.16c0,7.89,0,15.78-.01,23.67-1.31,0-2.61,0-3.92,0-.75,0-.98-.14-.98-.95.03-11.15.02-22.31.02-33.46,0-2.11,1.05-3.16,3.14-3.16,18.56,0,37.12,0,55.68,0,2.15,0,3.17,1.04,3.17,3.22,0,.93,0,1.87,0,2.8H27.1c-.75.33-1.58.43-2.31.83-2.8,1.53-4.4,3.84-4.4,7.05Zm92.55,49.49c-.81-4.55-2.6-8.67-5.44-12.32-4.41-5.66-10.12-9.36-17.2-10.59-10.64-1.85-19.69,1.29-26.91,9.35-3.7,4.14-5.82,9.05-6.63,14.54-.1.69-.08,1.4-.26,2.08v3.77c.21,1.01.24,2.04.42,3.06.81,4.61,2.65,8.77,5.54,12.45,4.4,5.58,10.1,9.09,17.08,10.49.99.2,2,.35,3.02.39.16,0,.34,0,.48.11h3.78c1.01-.21,2.04-.24,3.06-.42,5.52-.98,10.32-3.37,14.41-7.18,4.52-4.2,7.37-9.35,8.57-15.4.19-.98.35-1.96.39-2.96,0-.18.07-.36.11-.54v-3.77c-.21-1.01-.24-2.04-.42-3.06Zm-15.59,17.06c-.93,1.1-2.61,1.27-3.75.38-.22-.17-.42-.36-.62-.56-2.55-2.54-5.11-5.09-7.65-7.65-.33-.33-.5-.32-.82,0-2.59,2.61-5.2,5.21-7.81,7.8-1.19,1.19-2.7,1.29-3.89.31-1.14-.94-1.32-2.62-.41-3.78.17-.22.36-.42.56-.61,2.54-2.54,5.07-5.07,7.62-7.59.33-.33.38-.5.02-.86-2.61-2.57-5.19-5.16-7.78-7.75-1.23-1.23-1.34-2.76-.3-3.96.93-1.07,2.58-1.25,3.71-.38.23.18.45.38.66.59,2.55,2.54,5.11,5.09,7.65,7.65.31.31.47.3.78,0,2.59-2.61,5.2-5.21,7.81-7.8,1.21-1.21,2.74-1.32,3.93-.31.65.55.93,1.26.98,2.02-.02.95-.43,1.64-1.05,2.25-2.58,2.57-5.15,5.15-7.74,7.71-.32.32-.35.48-.01.82,2.62,2.58,5.22,5.19,7.82,7.79,1.21,1.21,1.31,2.73.3,3.92Z"/>
  </g>
</svg>