<?xml version="1.0" encoding="UTF-8"?>
<svg id="Layer_2" data-name="Layer 2" xmlns="http://www.w3.org/2000/svg" viewBox="0 0 113.43 113.36">
  <defs>
    <style>
      .cls-1 {
        fill: #ec008c;
      }
    </style>
  </defs>
  <g id="Layer_1-2" data-name="Layer 1">
    <g>
      <path class="cls-1" d="m32.71,7.21c.86.29,1.72.58,2.59.86,1.68.56,3.35,1.12,5.03,1.67,4.48,1.49,6.95,4.93,6.95,9.67,0,6.61,0,13.21,0,19.82,0,17.29,0,34.58,0,51.88q0,1.03,1.05,1.03c4.65,0,9.3,0,13.95,0,2,0,3.68-.66,4.95-2.24.75-.93,1.19-1.99,1.25-3.19.03-.76.03-1.51.03-2.27,0-6.27,0-12.55,0-18.82,0-1.05.11-2.07.84-2.9.96-1.09,2.16-1.54,3.58-1.16,1.49.4,2.39,1.4,2.64,2.94.04.25.06.51.06.77,0,6.92,0,13.84,0,20.76,0,4.05-1.51,7.45-4.58,10.09-2.39,2.05-5.2,3.11-8.37,3.12-4.91.01-9.82.01-14.73,0-.52,0-.68.12-.68.67,0,1.95.19,3.92-.17,5.86-.76,4.09-4.19,7.17-8.31,7.57-1.45.14-2.83-.04-4.19-.5-9.31-3.1-18.63-6.18-27.94-9.31-3.9-1.31-6.05-4.09-6.55-8.17-.07-.55-.08-1.1-.08-1.66C.03,65.71.05,37.74,0,9.76,0,5.1,3.33.22,9.45.01c.18,0,.37,0,.55,0C27.44,0,44.88.02,62.32,0c6.42,0,10.97,4.03,12.62,8.85.48,1.39.69,2.83.69,4.29,0,6.96-.02,13.91.01,20.87.01,2.72-2.33,4.05-4.05,3.77-1.6-.26-2.9-1.59-3.04-3.2-.03-.35-.03-.7-.03-1.05,0-6.66,0-13.32,0-19.99,0-.93-.04-1.85-.42-2.71-1.01-2.31-2.79-3.55-5.3-3.72-.26-.02-.52-.01-.77-.01-9.56,0-19.12,0-28.68,0-.2,0-.4,0-.61,0-.01.04-.02.08-.03.12Zm7.46,54.2c0-7.64,0-15.28,0-22.92,0-6.39,0-12.77,0-19.16,0-1.65-.48-2.36-2.04-2.88-5.03-1.69-10.06-3.36-15.1-5.04-4.05-1.35-8.12-2.66-12.16-4.05-2.29-.78-3.8.45-3.79,2.85.04,27.92.03,55.85.03,83.77,0,1.71.52,2.43,2.15,2.97,5.12,1.7,10.24,3.4,15.36,5.11,3.97,1.32,7.93,2.64,11.9,3.96.49.16.98.33,1.51.27,1.3-.15,2.13-1.13,2.13-2.58,0-3.41,0-6.83,0-10.24,0-10.69,0-21.37,0-32.06Z"/>
      <path class="cls-1" d="m101.27,53.16c-.54,0-.94,0-1.34,0-11.63,0-23.26,0-34.88,0-1.52,0-2.81-.87-3.36-2.27-.53-1.32-.19-2.84.89-3.86.72-.68,1.59-.96,2.57-.96,7.51,0,15.02,0,22.54,0,4.28,0,8.56,0,12.85,0,.2,0,.4,0,.65,0-.08-.29-.29-.42-.44-.58-3.22-3.25-6.45-6.5-9.68-9.74-.48-.48-1-.92-1.46-1.43-1.33-1.45-1.31-3.54.02-4.9,1.36-1.39,3.49-1.5,4.93-.13,1.9,1.8,3.73,3.69,5.58,5.54,3.97,3.97,7.93,7.94,11.9,11.9,1.04,1.04,1.67,2.2,1.3,3.72-.14.59-.45,1.09-.85,1.53-.38.43-.78.84-1.19,1.24-5.41,5.42-10.83,10.83-16.24,16.25-.8.8-1.67,1.41-2.84,1.39-1.51-.02-2.63-.71-3.26-2.07-.63-1.37-.43-2.69.57-3.81.94-1.04,1.96-2,2.95-2.99,2.85-2.84,5.69-5.69,8.54-8.53.06-.06.11-.14.26-.32Z"/>
    </g>
  </g>
</svg>