<?xml version="1.0" encoding="UTF-8"?>
<svg id="Layer_2" data-name="Layer 2" xmlns="http://www.w3.org/2000/svg" viewBox="0 0 113.36 113.36">
  <defs>
    <style>
      .cls-1 {
        fill: #ec008c;
      }
    </style>
  </defs>
  <g id="Layer_1-2" data-name="Layer 1">
    <g>
      <path class="cls-1" d="m60.21,108.05c-10.44,0-20.89,0-31.33,0-2.16,0-3.19-1.04-3.19-3.21,0-11.01,0-22.02-.02-33.03,0-.75.14-.99.95-.98,9.19.03,18.38.02,27.57.02.87-1.85,1.9-3.63,3.11-5.31-.22,0-.43,0-.65,0-10,0-20.01,0-30.01.02-.75,0-.98-.14-.98-.95.03-11.15.02-22.31.02-33.46,0-2.11,1.05-3.16,3.14-3.16,18.56,0,37.12,0,55.68,0,2.15,0,3.17,1.04,3.17,3.22,0,6.78,0,13.57,0,20.35,1.8.17,3.57.48,5.3.92,0-7.28,0-14.56,0-21.84,0-3.78-2.56-6.95-6.24-7.79-.17-.04-.32-.12-.49-.18h-3.46c0-1.12,0-2.25,0-3.37,0-3.78-2.56-6.95-6.24-7.79-.17-.04-.32-.12-.49-.18h-3.46c0-1.12,0-2.25,0-3.37,0-3.78-2.56-6.95-6.24-7.79-.17-.04-.32-.12-.49-.18H6.73c-.75.33-1.58.43-2.31.83C1.62,2.36.02,4.67.02,7.88,0,32.85,0,57.82,0,82.79c0,4.35,3.54,7.89,7.88,7.89.77,0,1.54,0,2.3,0,0,1.15,0,2.3,0,3.44,0,4.35,3.54,7.89,7.88,7.89.77,0,1.54,0,2.3,0,0,1.15,0,2.3,0,3.44,0,4.35,3.54,7.89,7.88,7.89,12.79,0,25.57,0,38.36,0-1.94-1.24-3.76-2.68-5.44-4.32-.33-.32-.65-.65-.97-.99Zm-51.7-22.67c-2.16,0-3.19-1.04-3.19-3.21,0-11.01,0-22.02-.02-33.03,0-.75.14-.99.95-.98,1.32,0,2.63,0,3.95,0,0,12.4,0,24.81,0,37.21-.56,0-1.13,0-1.69,0Zm1.7-66.16c0,7.89,0,15.78-.01,23.67-1.31,0-2.61,0-3.92,0-.75,0-.98-.14-.98-.95.03-11.15.02-22.31.02-33.46,0-2.11,1.05-3.16,3.14-3.16,18.56,0,37.12,0,55.68,0,2.15,0,3.17,1.04,3.17,3.22,0,.93,0,1.87,0,2.8H16.92c-.75.33-1.58.43-2.31.83-2.8,1.53-4.4,3.84-4.4,7.05Zm8.48,77.5c-2.16,0-3.19-1.04-3.19-3.21,0-11.01,0-22.02-.02-33.03,0-.75.14-.99.95-.98,1.32,0,2.63,0,3.95,0,0,12.4,0,24.81,0,37.21-.56,0-1.13,0-1.69,0Zm1.7-66.16c0,7.89,0,15.78-.01,23.67-1.31,0-2.61,0-3.92,0-.75,0-.98-.14-.98-.95.03-11.15.02-22.31.02-33.46,0-2.11,1.05-3.16,3.14-3.16,18.56,0,37.12,0,55.68,0,2.15,0,3.17,1.04,3.17,3.22,0,.93,0,1.87,0,2.8H27.1c-.75.33-1.58.43-2.31.83-2.8,1.53-4.4,3.84-4.4,7.05Z"/>
      <path class="cls-1" d="m111.87,75.83c-.52-.43-1.06-.85-1.59-1.27-5.41-4.33-10.83-8.66-16.24-13-1.24-.99-2.6-1.27-4.04-.56-1.43.7-2.08,1.91-2.05,3.52.03,1.92-.04,3.85.03,5.78.03.79-.23.93-.95.9-4.09-.15-8.14.17-12.08,1.35-3.95,1.18-7.53,3.03-10.25,6.18-4.42,5.13-6.28,11.15-5.81,17.9.14,2.04,1.12,3.38,2.89,3.8,1.72.4,3.21-.34,4.17-2.13,1.31-2.47,3.18-4.39,5.59-5.78,4.97-2.86,10.4-3.41,15.99-3.19.5.02.43.33.43.64,0,1.19,0,2.38,0,3.57,0,1.13,0,2.27,0,3.4,0,.73.21,1.39.61,1.99,1.33,1.99,3.91,2.19,5.72.4,3.6-3.56,7.17-7.16,10.76-10.74,2.38-2.38,4.78-4.75,7.14-7.16,1.69-1.72,1.53-4.04-.32-5.58Z"/>
    </g>
  </g>
</svg>