<?xml version="1.0" encoding="UTF-8"?>
<svg id="Layer_2" data-name="Layer 2" xmlns="http://www.w3.org/2000/svg" viewBox="0 0 90.77 113.36">
  <defs>
    <style>
      .cls-1 {
        fill: #ec008c;
      }
    </style>
  </defs>
  <g id="Layer_1-2" data-name="Layer 1">
    <path class="cls-1" d="m8.41,0c24.65,0,49.3,0,73.95,0,.2.08.4.18.61.22,4.59,1.04,7.8,5.01,7.8,9.73,0,31.18.01,62.35,0,93.53,0,5.44-4.41,9.86-9.85,9.87-23.69.01-47.37.01-71.06,0-5.43,0-9.85-4.43-9.85-9.86C0,72.27,0,41.06.02,9.85.03,5.84,2.03,2.94,5.52,1.04c.92-.5,1.95-.62,2.89-1.04Zm36.94,53.58c12.54,0,25.08-.01,37.62.03,1.01,0,1.19-.29,1.19-1.23-.03-13.91-.02-27.81-.02-41.72,0-2.72-1.28-4.03-3.97-4.03-23.2,0-46.4,0-69.6,0-2.62,0-3.93,1.32-3.93,3.95,0,13.94.01,27.88-.03,41.83,0,1.01.29,1.19,1.23,1.19,12.5-.03,25.01-.02,37.51-.02Zm.09,6.63c-12.55,0-25.09.01-37.64-.03-1.01,0-1.19.29-1.19,1.23.03,13.76.02,27.53.02,41.29,0,2.71,1.29,4.01,3.99,4.01,23.17,0,46.35,0,69.52,0,2.7,0,3.99-1.3,3.99-4.01,0-13.76,0-27.53.02-41.29,0-.94-.18-1.23-1.19-1.23-12.51.04-25.02.03-37.53.03Z"/>
  </g>
</svg>