<?xml version="1.0" encoding="UTF-8"?>
<svg id="Layer_2" data-name="Layer 2" xmlns="http://www.w3.org/2000/svg" viewBox="0 0 113.36 113.36">
  <defs>
    <style>
      .cls-1 {
        fill: #ec008c;
      }
    </style>
  </defs>
  <g id="Layer_1-2" data-name="Layer 1">
    <g>
      <path class="cls-1" d="m0,88.12c0-20.96,0-41.92,0-62.88.07-.16.18-.32.21-.49,1.19-5.56,5.08-9.39,10.69-10.4,2.3-.42,4.63-.12,6.95-.15.72,0,1.02-.12,1.02-.94.01-2.38,1.41-3.75,3.79-3.81,1.36-.03,2.73-.04,4.09,0,.67.03.94-.23,1.17-.84,1.25-3.42,3.56-5.88,6.83-7.45,1.13-.54,2.37-.75,3.54-1.15,1.25,0,2.51,0,3.76,0,.09.06.17.16.27.18,4.98.97,8.32,3.88,10.1,8.59.2.52.46.67.97.66,1.29-.02,2.58-.01,3.87,0,2.72.02,4.01,1.2,4.13,3.91.03.7.27.86.91.84,1.58-.04,3.17-.01,4.76-.01,7.5,0,13.23,5.71,13.26,13.21.02,3.87-.02,7.75.02,11.62.01.91-.22,1.2-1.16,1.19-4.54-.05-9.07-.03-13.61-.01-1.07,0-2.15.02-3.19.22-7.77,1.5-12.8,7.63-12.81,15.57,0,14.02-.01,28.03.02,42.05,0,.99-.26,1.2-1.21,1.2-11.84-.04-23.68,0-35.52-.03-4.22,0-7.59-1.82-10.21-5.08-1.42-1.76-2.08-3.85-2.67-5.98ZM40.07,23.6c4.17,0,8.34,0,12.5,0,1.41,0,1.69-.3,1.7-1.68,0-1.51-.02-3.02.01-4.54.02-.63-.19-.83-.82-.81-1.22.04-2.43.03-3.65,0-2.22-.03-3.64-1.42-3.77-3.63-.19-3.33-2.7-5.84-5.88-5.86-3.19-.02-5.69,2.45-5.88,5.82-.13,2.23-1.61,3.64-3.88,3.67-1.22.01-2.43.03-3.65,0-.58-.02-.78.19-.77.76.03,1.36,0,2.73,0,4.09,0,1.99.18,2.17,2.12,2.17,3.98,0,7.97,0,11.95,0Z"/>
      <path class="cls-1" d="m113.36,80.36c0,8.15,0,16.31,0,24.46,0,5.02-3.54,8.53-8.58,8.53-13.17,0-26.35,0-39.52,0-5.03,0-8.57-3.53-8.57-8.55,0-16.35,0-32.69,0-49.04,0-4.93,3.56-8.56,8.47-8.57,13.25-.02,26.49-.02,39.74,0,4.91,0,8.45,3.64,8.46,8.58,0,8.19,0,16.38,0,24.58Zm-28.9-7.1c-3.43,0-6.86,0-10.29,0-.48,0-.95-.02-1.42.14-1.68.56-2.64,2.09-2.4,3.87.24,1.78,1.63,2.98,3.65,2.99,6.93.03,13.87.03,20.8,0,2.3,0,3.78-1.49,3.75-3.59-.03-2.02-1.57-3.41-3.81-3.42-3.43,0-6.86,0-10.29,0Zm.12,14.17c-3.5,0-7.01,0-10.51,0-2.23,0-3.75,1.41-3.77,3.45-.02,2.01,1.49,3.54,3.7,3.55,6.97.03,13.94.04,20.91,0,2.23-.01,3.68-1.51,3.65-3.58-.03-2.02-1.57-3.42-3.8-3.42-3.39,0-6.79,0-10.18,0Z"/>
    </g>
  </g>
</svg>