<?xml version="1.0" encoding="UTF-8"?>
<svg id="Layer_2" data-name="Layer 2" xmlns="http://www.w3.org/2000/svg" viewBox="0 0 113.37 113.36">
  <defs>
    <style>
      .cls-1 {
        fill: #ec008c;
      }
    </style>
  </defs>
  <g id="Layer_1-2" data-name="Layer 1">
    <path class="cls-1" d="m64.01,28c.02,2.03,1.42,3.54,3.29,3.58,1.86.04,3.35-1.45,3.36-3.48.03-3.46.03-6.92,0-10.38-.02-2.06-1.43-3.52-3.32-3.52-1.9,0-3.32,1.55-3.34,3.64-.01,1.66,0,3.31,0,4.97,0,1.73-.01,3.46,0,5.19Zm11.07,43.8c-12.41,0-24.82,0-37.23,0-3.13,0-5,1.72-5,4.61-.01,8.23,0,16.46-.02,24.69,0,.71.22.88.97.87,7.54-.03,15.09-.02,22.63-.02s15.15-.01,22.72.02c.75,0,.97-.16.97-.87-.03-8.23-.01-16.46-.02-24.69,0-2.89-1.88-4.61-5.01-4.61Zm37.22-49.6c-7.04-7.05-14.08-14.09-21.14-21.12-.43-.43-.99-.72-1.49-1.08H10.41c-.27.33-.68.21-1.02.3C4.44,1.72,1.34,4.88.21,9.92c-.04.17-.14.32-.21.48v92.55c.27.87.5,1.75.83,2.6,1.81,4.69,6.27,7.8,11.29,7.8,29.7.01,59.4.01,89.1,0,6.69,0,12.12-5.41,12.13-12.08.02-25.46,0-50.92.02-76.38,0-1.07-.33-1.95-1.07-2.69ZM29.2,6.62c8.01.03,16.01.02,24.02.02s15.94.01,23.91-.02c.86,0,1.11.21,1.11,1.09-.03,8.48-.01,16.97-.02,25.46,0,3.66-2.25,5.95-5.92,5.95-12.76.02-25.53.02-38.29,0-3.73,0-5.96-2.28-5.96-6.03-.02-8.45.01-16.9-.03-25.34,0-.98.33-1.12,1.2-1.12Zm54.98,100.12c-9.19-.03-18.37-.02-27.56-.02s-18.3-.01-27.45.02c-.91,0-1.18-.21-1.17-1.15.03-10.81.01-21.62.03-32.43,0-3.79,2.28-6.05,6.07-6.05,15.05,0,30.11,0,45.16,0,3.79,0,6.07,2.25,6.07,6.05.01,10.81,0,21.62.03,32.43,0,.94-.26,1.15-1.17,1.15Zm22.54-6.17c0,3.82-2.32,6.14-6.12,6.15-2.47,0-4.95-.05-7.42.03-.95.03-1.14-.28-1.14-1.17.03-10.81.03-21.62.01-32.43-.01-6.11-3.7-10.91-9.43-12.34-1.04-.26-2.1-.35-3.18-.35-15.17,0-30.33,0-45.5,0-7.3,0-12.64,5.32-12.66,12.63-.03,10.74-.02,21.47.02,32.21,0,1.12-.24,1.5-1.42,1.45-2.43-.1-4.87-.02-7.3-.03-3.59-.02-5.95-2.38-5.95-5.98,0-14.69,0-29.37,0-44.06,0-14.54,0-29.08,0-43.61,0-4.2,2.21-6.43,6.4-6.43,2.4,0,4.8.04,7.19-.02.9-.02,1.09.27,1.08,1.11-.03,8.49-.04,16.97-.01,25.46.02,6.07,3.75,10.85,9.51,12.27,1.08.27,2.18.35,3.29.35,12.66,0,25.31,0,37.97,0,7.58,0,12.86-5.28,12.87-12.88.02-8.27,0-16.53.02-24.8,0-.49-.35-1.31.33-1.42.8-.13,1.75-.41,2.49.39.8.87,1.66,1.68,2.5,2.51,5.24,5.24,10.48,10.5,15.74,15.72.51.51.72,1.01.72,1.73-.02,24.5-.01,49-.02,73.5Z"/>
  </g>
</svg>