<?xml version="1.0" encoding="UTF-8"?>
<svg id="Layer_2" data-name="Layer 2" xmlns="http://www.w3.org/2000/svg" viewBox="0 0 113.36 101.31">
  <defs>
    <style>
      .cls-1 {
        fill: #ec008c;
      }
    </style>
  </defs>
  <g id="Layer_1-2" data-name="Layer 1">
    <path class="cls-1" d="m19.49,27.92c.35,0,.61,0,.87,0,18.71,0,37.41,0,56.12,0,8.01,0,15.26,2.34,21.74,7.06,3.02,2.2,5.68,4.74,7.88,7.76,3.59,4.93,5.95,10.37,6.84,16.41.87,5.88.35,11.64-1.58,17.27-2.93,8.53-8.31,15.06-16.04,19.72-4.69,2.83-9.76,4.43-15.18,4.98-1.18.12-2.38.17-3.57.17-4.61.02-9.22,0-13.83,0-2.35,0-4.15-.97-5.27-3.03-2.05-3.78.71-8.23,5.15-8.28,4.57-.04,9.13-.03,13.7,0,2.64.01,5.27-.24,7.76-1.08,9.33-3.14,15.37-9.49,17.38-19.14,2.03-9.77-1.06-18.04-8.52-24.65-3.47-3.07-7.55-4.88-12.14-5.57-1.51-.23-3.02-.33-4.55-.33-18.64,0-37.28.01-55.92.02-.23,0-.48-.09-.52-.01,1.24,1.33,2.44,2.71,3.73,3.99,4.81,4.79,9.66,9.54,14.49,14.32,1.59,1.58,2.26,3.47,1.66,5.66-.58,2.13-2,3.51-4.13,4.05-2.13.53-3.95-.14-5.49-1.66-3.12-3.09-6.24-6.17-9.37-9.25-6.21-6.14-12.42-12.28-18.64-18.41-1.11-1.09-1.9-2.33-2.03-3.89-.15-1.79.46-3.33,1.74-4.6,3.41-3.36,6.82-6.72,10.23-10.07C17.99,13.45,23.99,7.54,29.99,1.63c2.03-2,5.26-2.18,7.42-.42,2.3,1.87,2.84,5.03,1.27,7.48-.25.39-.56.74-.89,1.06-5.84,5.76-11.68,11.53-17.51,17.3-.25.24-.58.41-.8.87Z"/>
  </g>
</svg>